<svg xmlns="http://www.w3.org/2000/svg" viewBox="0 0 800 450" width="100%" height="100%" preserveAspectRatio="xMidYMid meet" role="img" aria-labelledby="t-08 d-08">
  <title id="t-08">Webhook Sequence</title>
  <desc id="d-08">Hand-authored AWUN Technical Documentary diagram for webhook sequence. JetBrains Mono labels, terracotta palette, flat white field, hairline borders, rounded orthogonal connectors with open chevron markers. No gradients, no shadows. All facts trace to docs/case-studies/awun.md.</desc>
  <rect x="0" y="0" width="800" height="450" fill="#FFFFFF"/>
  <defs>
  <marker id="chev_08" viewBox="0 0 10 10" refX="9" refY="5" markerWidth="7" markerHeight="7" orient="auto-start-reverse">
    <path d="M 0 0 L 9 5 L 0 10" fill="none" stroke="#3D2B1F" stroke-width="1.4"/>
  </marker>
</defs>
  <text x="24" y="24" text-anchor="start" font-family="'JetBrains Mono', 'Menlo', 'Consolas', monospace" font-size="9" font-weight="600" fill="#8B4513">AWUN / TECHNICAL DOCUMENTARY</text>
<text x="24" y="42" text-anchor="start" font-family="'JetBrains Mono', 'Menlo', 'Consolas', monospace" font-size="18" font-weight="600" fill="#1F1B16">Paystack Webhook Sequence</text>
<text x="24" y="60" text-anchor="start" font-family="'JetBrains Mono', 'Menlo', 'Consolas', monospace" font-size="10" font-weight="400" fill="#6B5A4A">raw-body HMAC -> idempotent lock -> commit payment -> stock decrement -> order insert -> email outbox</text>
<line x1="24" y1="85" x2="776" y2="85" stroke="#1F1B16" stroke-width="0.75"/>
<rect x="30" y="110" width="360.0" height="200" rx="10" ry="10" fill="#FFFFFF" stroke="#8B4513" stroke-width="1" stroke-dasharray="2 2"/>
<rect x="38" y="101" width="6" height="14" fill="#FFFFFF" stroke="none"/>
<text x="48" y="112" font-family="'JetBrains Mono', 'Menlo', 'Consolas', monospace" font-size="9" font-weight="600" fill="#8B4513">PAYSTACK</text>
<rect x="410.0" y="110" width="360.0" height="200" rx="10" ry="10" fill="#FFFFFF" stroke="#8B4513" stroke-width="1" stroke-dasharray="2 2"/>
<rect x="418.0" y="101" width="6" height="14" fill="#FFFFFF" stroke="none"/>
<text x="428.0" y="112" font-family="'JetBrains Mono', 'Menlo', 'Consolas', monospace" font-size="9" font-weight="600" fill="#8B4513">BACKEND (CLOUD RUN)</text>
<rect x="50" y="110" width="340.0" height="24" rx="8" ry="8" fill="#F5E9DC" stroke="#1F1B16" stroke-width="1.25"/>
<text x="220.0" y="126.0" text-anchor="middle" font-family="'JetBrains Mono', 'Menlo', 'Consolas', monospace" font-size="10" font-weight="500" fill="#1F1B16">PAY</text>
<text x="220.0" y="140.0" text-anchor="middle" font-family="'JetBrains Mono', 'Menlo', 'Consolas', monospace" font-size="9" fill="#6B5A4A">buyer pays</text>
<rect x="430.0" y="145" width="340.0" height="24" rx="8" ry="8" fill="#F5E9DC" stroke="#1F1B16" stroke-width="1.25"/>
<text x="600.0" y="161.0" text-anchor="middle" font-family="'JetBrains Mono', 'Menlo', 'Consolas', monospace" font-size="10" font-weight="500" fill="#1F1B16">POST</text>
<text x="600.0" y="175.0" text-anchor="middle" font-family="'JetBrains Mono', 'Menlo', 'Consolas', monospace" font-size="9" fill="#6B5A4A">/webhooks/paystack</text>
<rect x="430.0" y="175" width="340.0" height="24" rx="8" ry="8" fill="#F5E9DC" stroke="#1F1B16" stroke-width="1.25"/>
<text x="600.0" y="191.0" text-anchor="middle" font-family="'JetBrains Mono', 'Menlo', 'Consolas', monospace" font-size="10" font-weight="500" fill="#1F1B16">LOCK</text>
<text x="600.0" y="205.0" text-anchor="middle" font-family="'JetBrains Mono', 'Menlo', 'Consolas', monospace" font-size="9" fill="#6B5A4A">webhook_events unique</text>
<rect x="430.0" y="205" width="340.0" height="24" rx="8" ry="8" fill="#F5E9DC" stroke="#1F1B16" stroke-width="1.25"/>
<text x="600.0" y="221.0" text-anchor="middle" font-family="'JetBrains Mono', 'Menlo', 'Consolas', monospace" font-size="10" font-weight="500" fill="#1F1B16">COMMIT</text>
<text x="600.0" y="235.0" text-anchor="middle" font-family="'JetBrains Mono', 'Menlo', 'Consolas', monospace" font-size="9" fill="#6B5A4A">mark paid (changes=0 guard)</text>
<rect x="430.0" y="240" width="340.0" height="24" rx="8" ry="8" fill="#F5E9DC" stroke="#1F1B16" stroke-width="1.25"/>
<text x="600.0" y="256.0" text-anchor="middle" font-family="'JetBrains Mono', 'Menlo', 'Consolas', monospace" font-size="10" font-weight="500" fill="#1F1B16">INSERT</text>
<text x="600.0" y="270.0" text-anchor="middle" font-family="'JetBrains Mono', 'Menlo', 'Consolas', monospace" font-size="9" fill="#6B5A4A">order + items_json</text>
<rect x="430.0" y="270" width="340.0" height="24" rx="8" ry="8" fill="#F5E9DC" stroke="#1F1B16" stroke-width="1.25"/>
<text x="600.0" y="286.0" text-anchor="middle" font-family="'JetBrains Mono', 'Menlo', 'Consolas', monospace" font-size="10" font-weight="500" fill="#1F1B16">OUTBOX</text>
<text x="600.0" y="300.0" text-anchor="middle" font-family="'JetBrains Mono', 'Menlo', 'Consolas', monospace" font-size="9" fill="#6B5A4A">buyer + vendor email</text>
<path d="M 600.0 169 L 600.0 175" stroke="#3D2B1F" stroke-width="1.25" fill="none"/>
<path d="M 600.0 175 L 606.0 171.25 L 606.0 178.75 Z" fill="none" stroke="#3D2B1F" stroke-width="1.25"/>
<path d="M 600.0 199 L 600.0 205" stroke="#3D2B1F" stroke-width="1.25" fill="none"/>
<path d="M 600.0 205 L 606.0 201.25 L 606.0 208.75 Z" fill="none" stroke="#3D2B1F" stroke-width="1.25"/>
<path d="M 600.0 229 L 600.0 240" stroke="#3D2B1F" stroke-width="1.25" fill="none"/>
<path d="M 600.0 240 L 606.0 236.25 L 606.0 243.75 Z" fill="none" stroke="#3D2B1F" stroke-width="1.25"/>
<path d="M 600.0 264 L 600.0 270" stroke="#3D2B1F" stroke-width="1.25" fill="none"/>
<path d="M 600.0 270 L 606.0 266.25 L 606.0 273.75 Z" fill="none" stroke="#3D2B1F" stroke-width="1.25"/>
<path d="M 560.0 122 L 578.0 122 Q 584.0 122 584.0 128 L 584.0 151 Q 584.0 157 590.0 157 L 600.0 157" stroke="#A0522D" stroke-width="1.25" fill="none"/>
<path d="M 600.0 157 L 594.0 153.25 L 594.0 160.75 Z" fill="none" stroke="#A0522D" stroke-width="1.25"/>
<text x="400.0" y="118" text-anchor="middle" font-family="'JetBrains Mono', 'Menlo', 'Consolas', monospace" font-size="9" font-weight="400" fill="#8B4513">POST /webhooks/paystack</text>
<text x="400.0" y="330" text-anchor="middle" font-family="'JetBrains Mono', 'Menlo', 'Consolas', monospace" font-size="9" font-weight="400" fill="#6B5A4A" font-style="italic">Verify fallback: POST /api/v1/public/checkout/{id}/verify (no webhook required)</text>
<line x1="24" y1="418" x2="776" y2="418" stroke="#1F1B16" stroke-width="0.5"/>
<text x="24" y="434" text-anchor="start" font-family="'JetBrains Mono', 'Menlo', 'Consolas', monospace" font-size="8" font-weight="400" fill="#6B5A4A">AWUN / 08 OF 08</text>
<text x="776" y="434" text-anchor="end" font-family="'JetBrains Mono', 'Menlo', 'Consolas', monospace" font-size="8" font-weight="400" fill="#6B5A4A">awun.md section 2.5 / section 7 #5</text>
</svg>
